<svg xmlns="http://www.w3.org/2000/svg" viewBox="0 0 600 472" preserveAspectRatio="xMidYMid meet">
  <title>San Francisco Neighborhoods</title>
  <path id="seacliff" data-name="Seacliff" d="M89.88,174.17 L90.86,187.73 L113.79,186.76 L113.29,179.98 L124.95,179.45 L124.61,173.94 L126.31,168.61 L125.89,166.77 L124.28,166.30 L121.42,162.82 L118.04,161.24 L112.99,166.23 L111.19,165.66 L107.10,166.77 L104.05,166.04 L93.40,172.38 L90.39,173.93 L89.88,174.17 Z"/>
  <path id="lake-street" data-name="Lake Street" d="M113.79,186.76 L166.75,184.34 L166.60,177.56 L167.39,173.81 L159.59,175.25 L143.98,175.04 L131.88,174.18 L131.17,174.74 L124.61,173.94 L124.95,179.45 L113.29,179.98 L113.79,186.76 Z"/>
  <path id="presidio-national-park" data-name="Presidio National Park" d="M172.50,174.22 L213.81,166.07 L261.70,156.37 L256.50,122.81 L251.74,121.38 L249.50,117.87 L249.97,114.54 L252.11,112.18 L254.69,111.14 L253.50,103.43 L251.89,102.94 L233.04,104.24 L204.47,109.55 L199.50,110.05 L186.32,105.94 L182.32,103.01 L180.55,102.33 L178.68,99.70 L173.97,96.53 L165.21,94.81 L158.15,94.13 L154.45,92.98 L152.64,88.39 L148.59,87.82 L147.12,89.45 L147.44,97.08 L145.59,98.37 L140.05,117.80 L132.67,133.12 L127.00,146.96 L127.81,147.17 L118.04,161.24 L121.42,162.82 L124.28,166.30 L125.89,166.77 L126.31,168.61 L124.61,173.94 L131.17,174.74 L131.88,174.18 L143.98,175.04 L159.59,175.25 L172.50,172.71 L172.50,174.22 Z"/>
  <path id="presidio-terrace" data-name="Presidio Terrace" d="M167.39,173.81 L166.60,177.56 L187.68,176.64 L188.17,183.37 L215.50,179.86 L214.48,165.93 L172.50,174.22 L172.50,172.71 L167.39,173.81 Z"/>
  <path id="inner-richmond" data-name="Inner Richmond" d="M166.60,177.56 L166.75,184.34 L145.02,185.33 L147.91,226.47 L191.12,224.53 L193.71,224.36 L218.44,221.21 L215.50,179.86 L188.17,183.37 L187.68,176.64 L166.60,177.56 Z"/>
  <path id="sutro-heights" data-name="Sutro Heights" d="M55.84,196.24 L55.78,195.81 L31.99,196.89 L32.26,200.31 L27.41,200.61 L22.87,202.83 L15.82,203.52 L14.85,204.68 L15.45,207.80 L18.52,210.18 L19.31,214.91 L19.19,218.68 L57.35,216.99 L55.84,196.24 Z"/>
  <path id="lincoln-park-ft-miley" data-name="Lincoln Park / Ft. Miley" d="M91.33,194.18 L89.88,174.17 L90.39,173.93 L90.39,172.82 L86.55,170.94 L80.89,173.73 L68.60,168.87 L45.78,170.60 L27.99,183.53 L20.96,185.54 L18.18,190.41 L13.53,196.40 L12.90,201.07 L14.85,204.68 L15.82,203.52 L22.87,202.83 L27.41,200.61 L32.26,200.31 L31.99,196.89 L91.33,194.18 Z"/>
  <path id="outer-richmond" data-name="Outer Richmond" d="M57.35,216.99 L19.21,218.67 L19.28,232.04 L26.87,232.00 L147.91,226.47 L144.96,185.34 L113.79,186.76 L90.74,187.80 L91.33,194.18 L55.80,195.82 L55.84,196.24 L57.35,216.99 Z"/>
  <path id="golden-gate-park" data-name="Golden Gate Park" d="M19.28,232.04 L19.40,246.91 L20.76,258.03 L21.44,258.94 L29.46,258.70 L83.52,256.38 L149.58,253.43 L216.34,250.50 L220.55,251.37 L222.73,251.86 L238.16,250.07 L236.68,243.26 L234.68,233.05 L231.85,219.59 L218.44,221.21 L193.85,224.37 L191.12,224.53 L147.91,226.47 L26.87,232.00 L19.28,232.04 Z"/>
  <path id="presidio-heights" data-name="Presidio Heights" d="M262.33,157.33 L261.70,156.37 L214.49,165.98 L215.50,179.86 L248.44,175.66 L265.59,173.47 L262.33,157.33 Z"/>
  <path id="laurel-heights-jordan-park" data-name="Laurel Heights / Jordan Park" d="M215.50,179.86 L216.66,195.95 L229.67,195.22 L248.54,192.82 L255.99,191.89 L264.05,191.39 L260.54,174.12 L248.44,175.66 L215.50,179.86 Z"/>
  <path id="lone-mountain" data-name="Lone Mountain" d="M258.69,191.82 L248.54,192.82 L229.67,195.22 L216.66,195.95 L218.44,221.21 L231.85,219.59 L233.29,226.35 L239.33,225.59 L238.65,222.19 L244.64,221.43 L243.94,218.06 L261.71,215.79 L259.64,205.53 L257.90,196.63 L258.69,191.82 Z"/>
  <path id="anza-vista" data-name="Anza Vista" d="M275.08,190.03 L264.47,191.36 L258.69,191.82 L257.90,196.63 L259.64,205.53 L277.77,203.27 L281.75,202.83 L289.82,201.76 L287.13,188.49 L275.08,190.03 Z"/>
  <path id="cow-hollow" data-name="Cow Hollow" d="M257.01,126.00 L260.28,147.10 L296.33,142.53 L293.62,129.13 L275.61,131.43 L269.53,132.20 L267.68,132.02 L259.31,126.39 L257.01,126.00 Z"/>
  <path id="union-street" data-name="Union Street" d="M293.62,129.13 L296.33,142.53 L344.17,136.46 L341.46,123.06 L293.62,129.13 Z"/>
  <path id="nob-hill" data-name="Nob Hill" d="M362.17,164.78 L392.06,160.96 L392.75,164.34 L404.69,162.83 L402.59,152.60 L401.94,149.39 L395.99,150.15 L394.04,140.55 L370.13,143.54 L369.50,140.48 L358.10,141.88 L357.56,142.00 L362.17,164.78 Z"/>
  <path id="marina" data-name="Marina" d="M257.01,126.00 L259.31,126.39 L267.68,132.02 L269.53,132.20 L275.61,131.43 L341.46,123.06 L339.38,112.72 L315.49,115.92 L314.15,109.17 L314.00,108.89 L313.09,106.06 L307.65,106.79 L306.48,102.46 L301.40,102.68 L300.68,100.31 L284.34,102.28 L283.32,97.40 L275.69,98.69 L271.84,99.72 L259.13,100.61 L253.50,103.43 L254.70,111.10 L250.73,113.43 L249.42,116.37 L249.55,118.05 L251.48,120.99 L256.56,122.86 L257.01,126.00 Z"/>
  <path id="telegraph-hill" data-name="Telegraph Hill" d="M399.70,108.53 L403.10,125.48 L408.78,124.76 L410.16,131.54 L421.88,130.04 L418.51,113.14 L412.55,113.86 L411.20,107.09 L399.70,108.53 Z"/>
  <path id="downtown-union-square" data-name="Downtown / Union Square" d="M422.03,160.64 L392.75,164.34 L397.44,187.72 L398.13,188.57 L423.17,168.81 L423.55,168.08 L422.03,160.64 Z"/>
  <path id="tenderloin" data-name="Tenderloin" d="M394.78,174.52 L352.89,179.85 L355.64,193.39 L367.64,191.87 L368.34,195.26 L380.26,193.75 L380.95,197.15 L382.87,196.91 L385.19,198.78 L398.13,188.57 L397.44,187.72 L394.78,174.52 Z"/>
  <path id="civic-center" data-name="Civic Center" d="M385.19,198.78 L382.87,196.91 L380.95,197.15 L380.26,193.75 L368.34,195.26 L367.64,191.87 L355.64,193.39 L356.36,196.77 L344.39,198.30 L349.85,225.42 L350.90,225.84 L385.19,198.78 Z"/>
  <path id="hayes-valley" data-name="Hayes Valley" d="M345.76,205.08 L315.87,208.88 L317.92,219.05 L323.90,218.30 L324.59,221.68 L348.51,218.63 L345.76,205.08 Z"/>
  <path id="alamo-square" data-name="Alamo Square" d="M315.19,205.49 L291.18,208.54 L293.92,222.11 L317.92,219.05 L315.19,205.49 Z"/>
  <path id="panhandle" data-name="Panhandle" d="M261.71,215.79 L243.94,218.06 L244.64,221.43 L238.65,222.19 L239.33,225.59 L233.29,226.35 L234.68,233.05 L235.12,233.17 L264.45,229.32 L294.61,225.49 L291.86,211.95 L261.71,215.79 Z"/>
  <path id="haight-ashbury" data-name="Haight Ashbury" d="M254.73,241.01 L256.10,247.77 L268.03,246.24 L266.67,239.48 L272.65,238.71 L270.60,228.54 L264.45,229.32 L235.12,233.17 L234.68,233.05 L236.68,243.26 L254.73,241.01 Z"/>
  <path id="lower-haight" data-name="Lower Haight" d="M293.92,222.11 L296.69,235.64 L326.64,231.85 L325.95,228.46 L344.29,226.13 L344.70,228.82 L345.08,229.61 L345.61,230.03 L350.90,225.84 L349.85,225.42 L348.51,218.63 L324.59,221.68 L323.90,218.30 L293.92,222.11 Z"/>
  <path id="mint-hill" data-name="Mint Hill" d="M325.95,228.46 L328.07,238.92 L333.66,238.58 L335.02,238.33 L346.52,237.53 L346.18,231.24 L345.81,230.71 L345.61,230.03 L345.08,229.61 L344.70,228.82 L344.29,226.13 L325.95,228.46 Z"/>
  <path id="duboce-triangle" data-name="Duboce Triangle" d="M296.69,235.64 L297.06,236.29 L297.35,236.45 L298.12,236.87 L298.81,237.68 L300.53,240.31 L302.73,263.53 L310.42,257.99 L317.87,251.91 L335.02,238.33 L333.66,238.58 L328.07,238.92 L326.64,231.85 L296.69,235.64 Z"/>
  <path id="cole-valley" data-name="Cole Valley" d="M236.68,243.26 L238.16,250.07 L239.53,256.85 L257.47,254.56 L254.73,241.01 L236.68,243.26 Z"/>
  <path id="rincon-hill" data-name="Rincon Hill" d="M476.47,174.19 L476.57,172.45 L484.75,170.97 L484.34,169.55 L477.77,170.60 L477.27,168.62 L484.84,166.63 L484.05,164.93 L476.76,166.64 L475.74,164.93 L483.38,162.17 L482.57,160.62 L473.52,164.17 L471.38,160.60 L469.60,159.11 L467.00,161.15 L442.66,180.37 L453.89,189.33 L468.37,177.89 L472.18,174.89 L472.89,174.69 L475.06,174.71 L475.52,174.43 L476.47,174.19 Z"/>
  <path id="south-beach" data-name="South Beach" d="M476.08,212.39 L484.16,206.15 L486.07,204.23 L485.74,193.98 L483.24,193.49 L475.21,193.99 L476.03,191.99 L486.36,191.31 L486.14,189.83 L476.19,190.37 L475.22,188.72 L480.73,188.14 L480.54,186.12 L475.37,186.43 L475.50,184.53 L483.72,183.77 L483.56,182.36 L475.66,182.83 L475.90,180.68 L487.59,179.72 L486.97,173.65 L476.47,174.19 L475.52,174.43 L475.06,174.71 L472.89,174.69 L472.18,174.89 L468.37,177.89 L453.89,189.33 L445.80,195.72 L465.49,211.40 L466.87,213.25 L476.08,212.39 Z"/>
  <path id="south-of-market" data-name="South of Market" d="M457.14,168.93 L445.91,159.97 L428.85,173.43 L423.17,168.81 L398.13,188.57 L385.19,198.78 L350.90,225.84 L345.61,230.03 L345.81,230.71 L346.18,231.24 L346.52,237.53 L352.20,237.18 L357.13,237.11 L357.93,236.48 L374.04,238.37 L390.94,239.02 L391.30,239.68 L391.36,240.32 L399.95,239.93 L400.01,239.36 L395.28,235.61 L413.42,221.32 L424.66,230.27 L457.05,204.70 L445.80,195.72 L453.89,189.33 L442.66,180.37 L457.14,168.93 Z"/>
  <path id="showplace-square" data-name="Showplace Square" d="M413.42,221.32 L395.28,235.61 L400.01,239.36 L401.57,239.63 L402.13,240.69 L403.29,252.21 L448.64,249.45 L413.42,221.32 Z"/>
  <path id="mission-bay" data-name="Mission Bay" d="M453.48,258.62 L474.62,257.32 L478.16,257.98 L479.83,257.25 L479.88,254.05 L482.10,249.25 L493.22,248.58 L493.02,247.29 L485.78,247.74 L485.59,245.84 L489.43,245.08 L489.29,243.71 L484.70,243.62 L486.00,241.77 L483.15,236.23 L491.13,239.31 L491.93,237.94 L483.19,234.56 L484.18,230.94 L483.21,229.05 L478.83,224.98 L486.00,224.62 L498.11,229.91 L496.81,220.10 L478.23,221.14 L477.97,218.40 L485.85,217.27 L485.21,213.86 L477.66,214.69 L476.08,212.39 L466.87,213.25 L465.49,211.40 L457.05,204.70 L424.66,230.27 L448.64,249.45 L452.95,252.83 L453.48,258.62 Z"/>
  <path id="yerba-buena-island" data-name="Yerba Buena Island" d="M535.93,69.80 L533.31,70.61 L535.24,75.31 L534.07,80.39 L531.89,86.51 L529.43,88.26 L532.40,91.21 L533.64,93.31 L538.66,96.43 L540.56,96.43 L549.75,100.93 L553.27,100.97 L555.05,100.12 L563.78,100.59 L566.60,102.08 L569.23,102.10 L571.38,98.47 L572.60,98.40 L571.95,91.02 L570.97,87.69 L572.08,85.73 L572.28,82.40 L579.22,78.29 L580.31,74.71 L578.38,73.16 L569.89,75.23 L568.62,76.37 L561.95,76.59 L560.19,77.15 L557.90,79.35 L551.70,82.65 L548.65,82.98 L541.94,80.40 L538.37,76.06 L535.93,69.80 Z"/>
  <path id="treasure-island" data-name="Treasure Island" d="M533.35,70.67 L560.29,59.88 L562.89,53.11 L574.00,55.80 L574.46,54.62 L563.10,51.91 L565.81,45.64 L544.78,14.54 L527.69,10.00 L511.79,17.13 L506.59,30.41 L515.64,45.04 L533.35,70.67 Z"/>
  <path id="mission-dolores" data-name="Mission Dolores" d="M349.36,237.36 L335.02,238.33 L317.87,251.91 L319.51,269.04 L327.58,268.55 L328.69,280.19 L353.33,278.70 L349.36,237.36 Z"/>
  <path id="castro" data-name="Castro" d="M317.87,251.91 L310.42,257.99 L302.73,263.53 L299.88,264.34 L294.90,264.68 L296.00,276.31 L312.01,275.34 L311.44,269.53 L319.51,269.04 L317.87,251.91 Z"/>
  <path id="outer-sunset" data-name="Outer Sunset" d="M21.44,258.94 L21.71,264.09 L23.96,270.19 L23.60,273.43 L26.00,294.61 L26.95,300.06 L28.86,307.50 L31.69,312.84 L31.31,317.58 L33.12,324.37 L31.86,329.82 L34.14,337.03 L33.44,341.08 L35.34,345.04 L34.71,349.14 L35.20,353.70 L43.66,353.39 L88.22,351.43 L85.84,317.54 L154.21,314.52 L151.37,273.85 L150.66,267.06 L149.58,253.43 L83.52,256.38 L29.46,258.70 L21.44,258.94 Z"/>
  <path id="parkside" data-name="Parkside" d="M35.20,353.70 L36.35,359.72 L36.02,362.69 L42.64,362.44 L55.78,362.45 L63.08,363.40 L69.99,366.65 L79.30,368.62 L98.55,367.76 L107.22,367.37 L118.22,366.89 L141.75,365.85 L157.60,365.51 L154.21,314.52 L85.84,317.54 L88.22,351.43 L43.66,353.39 L35.20,353.70 Z"/>
  <path id="stonestown" data-name="Stonestown" d="M169.62,378.57 L154.60,378.32 L139.73,378.15 L134.92,378.10 L135.10,381.46 L140.10,387.36 L138.84,388.38 L134.70,391.77 L140.09,399.13 L150.51,399.25 L151.42,401.17 L157.32,402.69 L156.69,414.40 L158.07,418.98 L166.21,427.91 L166.80,428.97 L167.71,412.79 L168.67,393.88 L169.62,378.57 Z"/>
  <path id="parkmerced" data-name="Parkmerced" d="M156.69,414.40 L157.32,402.66 L151.44,401.14 L150.49,399.23 L140.06,399.12 L134.94,392.15 L132.77,392.83 L125.74,393.17 L121.33,404.15 L121.33,424.77 L120.78,437.98 L138.69,438.55 L150.60,438.75 L153.13,439.08 L155.74,439.97 L160.92,442.64 L167.79,445.18 L171.29,445.29 L170.80,442.59 L169.93,439.67 L166.58,429.93 L166.80,428.97 L166.21,427.91 L158.07,418.98 L156.69,414.40 Z"/>
  <path id="lakeshore" data-name="Lakeshore" d="M36.02,362.69 L36.83,364.46 L36.93,370.45 L36.51,372.09 L37.94,377.99 L37.33,378.86 L37.87,383.58 L43.35,412.66 L44.81,416.30 L45.11,422.00 L46.94,428.50 L51.01,439.88 L52.79,447.86 L53.95,448.45 L55.49,456.35 L56.98,462.00 L171.31,461.57 L171.73,458.91 L171.60,449.26 L171.59,448.39 L171.29,445.31 L167.79,445.18 L160.92,442.64 L155.74,439.97 L153.13,439.08 L150.60,438.75 L138.69,438.55 L120.78,437.98 L121.33,424.77 L121.33,404.15 L125.74,393.17 L132.77,392.83 L138.84,388.38 L140.04,387.34 L135.11,381.43 L134.91,378.10 L133.29,378.08 L130.10,378.16 L114.15,379.40 L107.66,377.91 L106.95,367.75 L107.22,367.37 L98.55,367.76 L79.30,368.62 L69.99,366.65 L63.08,363.40 L55.78,362.45 L42.64,362.44 L36.02,362.69 Z"/>
  <path id="golden-gate-heights" data-name="Golden Gate Heights" d="M198.76,278.56 L175.41,279.58 L174.93,272.79 L151.37,273.85 L155.63,334.87 L183.16,333.66 L182.72,328.28 L184.93,328.19 L189.83,316.73 L189.67,316.45 L188.99,306.19 L192.86,306.02 L192.39,299.24 L197.30,299.02 L198.54,295.76 L198.55,294.52 L199.14,292.38 L199.59,290.34 L199.21,285.01 L198.76,278.56 Z"/>
  <path id="forest-hill" data-name="Forest Hill" d="M183.16,333.66 L199.11,332.33 L215.51,319.47 L216.36,316.15 L213.93,313.79 L213.49,313.32 L210.74,310.66 L210.16,309.95 L208.40,306.27 L206.97,304.14 L205.78,303.70 L204.60,302.82 L203.54,301.65 L201.00,299.63 L200.15,298.77 L199.28,297.57 L197.30,299.02 L192.39,299.24 L192.86,306.02 L188.99,306.19 L189.67,316.45 L189.85,316.73 L184.91,328.18 L182.72,328.28 L183.16,333.66 Z"/>
  <path id="west-portal" data-name="West Portal" d="M157.60,365.51 L170.44,365.21 L190.12,348.75 L193.47,347.11 L194.20,343.60 L197.64,338.81 L199.11,332.33 L183.16,333.66 L155.63,334.87 L157.60,365.51 Z"/>
  <path id="clarendon-heights" data-name="Clarendon Heights" d="M261.84,269.58 L259.95,272.63 L259.21,274.48 L257.30,276.19 L254.20,276.72 L245.50,277.88 L243.90,278.42 L236.81,281.17 L235.17,282.45 L234.05,284.05 L233.70,285.95 L233.42,286.53 L232.42,287.92 L231.34,289.44 L230.50,291.00 L230.24,291.87 L230.06,293.84 L228.74,295.88 L235.69,297.35 L239.53,296.73 L243.08,295.43 L246.30,296.46 L250.45,294.55 L253.94,294.60 L264.68,295.69 L267.01,293.62 L267.99,290.67 L269.93,290.83 L274.58,289.68 L276.56,292.09 L278.54,292.64 L278.99,291.47 L280.54,289.14 L280.52,286.40 L275.72,284.37 L274.64,282.84 L274.31,282.36 L273.59,281.57 L271.48,279.81 L268.65,279.32 L267.38,279.32 L261.77,276.71 L261.92,273.77 L262.17,271.75 L261.99,269.95 L261.84,269.58 Z"/>
  <path id="midtown-terrace" data-name="Midtown Terrace" d="M228.74,295.88 L227.84,297.20 L227.35,298.16 L226.94,299.11 L227.04,301.99 L225.43,304.21 L232.00,305.21 L232.11,314.68 L240.68,314.75 L241.59,316.47 L245.11,320.17 L245.71,323.87 L245.77,324.78 L256.92,322.56 L267.61,320.71 L266.89,314.06 L267.58,312.83 L266.04,312.01 L264.66,312.74 L264.13,312.16 L260.06,309.74 L256.30,308.62 L255.19,308.99 L252.93,312.01 L250.18,312.10 L249.90,311.28 L250.03,310.25 L250.97,308.11 L251.84,307.29 L253.49,306.33 L256.41,306.70 L257.48,306.30 L259.46,304.13 L259.44,302.58 L258.34,301.38 L258.48,299.71 L260.59,297.79 L260.26,295.92 L259.29,295.13 L250.45,294.55 L246.30,296.46 L243.08,295.43 L239.53,296.73 L235.69,297.35 L228.74,295.88 Z"/>
  <path id="laguna-honda" data-name="Laguna Honda" d="M199.11,332.33 L197.64,338.81 L194.20,343.60 L193.47,347.11 L195.23,346.36 L198.89,345.79 L208.02,344.74 L208.64,344.90 L219.35,343.10 L220.84,342.48 L225.75,339.90 L227.74,337.84 L229.35,335.14 L229.66,334.58 L233.00,331.58 L236.94,328.76 L241.94,325.92 L242.97,325.84 L245.77,324.78 L245.71,323.87 L245.11,320.21 L241.33,316.21 L240.62,314.72 L232.11,314.67 L231.99,305.24 L225.43,304.21 L223.30,304.51 L216.20,302.53 L210.08,303.01 L208.30,303.45 L206.97,304.14 L208.40,306.27 L210.16,309.95 L210.74,310.66 L213.49,313.32 L213.93,313.79 L216.36,316.15 L215.51,319.47 L199.11,332.33 Z"/>
  <path id="lower-nob-hill" data-name="Lower Nob Hill" d="M392.75,164.34 L392.06,160.96 L362.17,164.78 L350.20,166.30 L352.89,179.85 L394.78,174.52 L392.75,164.34 Z"/>
  <path id="upper-market" data-name="Upper Market" d="M278.54,292.64 L276.56,292.09 L274.58,289.68 L269.93,290.83 L267.99,290.67 L267.19,293.06 L264.75,295.68 L260.26,295.92 L260.59,297.79 L258.48,299.71 L258.34,301.38 L259.44,302.58 L259.46,304.13 L257.48,306.30 L256.41,306.70 L253.49,306.33 L251.84,307.29 L250.97,308.11 L250.03,310.25 L249.90,311.28 L250.18,312.10 L252.93,312.01 L255.19,308.99 L256.30,308.62 L260.06,309.74 L264.13,312.16 L264.66,312.74 L266.04,312.01 L267.58,312.83 L266.89,314.06 L267.61,320.71 L268.50,321.67 L270.35,321.53 L270.83,321.37 L275.84,316.59 L276.08,316.21 L278.27,315.15 L280.12,314.66 L291.61,314.46 L291.34,311.68 L289.67,294.23 L281.85,294.69 L281.97,293.27 L278.95,292.75 L278.54,292.64 Z"/>
  <path id="dolores-heights" data-name="Dolores Heights" d="M311.44,269.53 L312.56,281.17 L312.49,282.04 L312.56,282.70 L312.84,284.08 L314.24,298.61 L330.39,297.64 L332.34,317.98 L348.91,316.83 L347.49,302.44 L352.16,302.16 L352.74,290.45 L354.45,290.35 L353.33,278.70 L328.69,280.19 L327.58,268.55 L311.44,269.53 Z"/>
  <path id="mission" data-name="Mission" d="M349.36,237.36 L354.45,290.35 L352.74,290.45 L352.16,302.16 L347.49,302.44 L348.91,316.83 L356.95,316.42 L399.02,315.59 L402.02,315.41 L407.73,313.46 L411.63,312.78 L408.27,306.35 L408.05,305.09 L408.19,304.64 L404.12,261.65 L403.29,252.21 L402.13,240.69 L401.57,239.63 L399.95,239.93 L391.36,240.32 L391.30,239.68 L390.94,239.02 L374.04,238.37 L357.93,236.48 L357.13,237.11 L352.20,237.18 L349.36,237.36 Z"/>
  <path id="potrero-hill" data-name="Potrero Hill" d="M403.29,252.21 L408.19,304.64 L408.05,305.09 L408.27,306.35 L411.63,312.78 L423.19,311.80 L444.23,310.53 L454.90,309.91 L461.89,309.09 L460.13,290.86 L457.06,258.40 L453.48,258.62 L452.95,252.84 L448.64,249.45 L403.29,252.21 Z"/>
  <path id="dogpatch" data-name="Dogpatch" d="M474.62,257.32 L457.06,258.40 L460.13,290.86 L477.71,289.80 L474.62,257.32 Z"/>
  <path id="central-waterfront" data-name="Central Waterfront" d="M474.62,257.32 L477.71,289.80 L460.13,290.86 L461.89,309.09 L454.90,309.91 L444.23,310.53 L440.55,310.75 L444.55,319.11 L445.20,319.56 L474.58,336.14 L477.49,327.53 L477.32,323.58 L492.07,331.85 L514.87,345.27 L517.68,347.38 L521.90,347.74 L535.17,346.72 L535.21,347.19 L546.04,346.59 L548.38,345.48 L529.73,325.95 L524.86,327.92 L521.76,324.87 L522.37,322.48 L519.89,320.45 L517.29,319.96 L510.22,320.06 L505.01,320.55 L504.65,319.76 L496.07,320.29 L493.80,319.93 L477.93,320.83 L476.99,318.36 L481.20,316.57 L518.78,314.31 L517.64,301.43 L503.55,302.22 L503.67,299.03 L498.83,298.99 L493.13,296.73 L492.52,293.00 L488.60,291.60 L498.39,291.17 L500.67,289.46 L498.94,288.29 L498.21,282.26 L499.02,279.88 L498.84,274.45 L506.31,273.47 L505.10,260.64 L504.21,260.57 L505.20,272.33 L501.95,272.52 L500.85,261.09 L499.83,255.79 L497.24,256.02 L497.05,264.50 L495.69,264.58 L494.88,256.47 L494.27,256.49 L495.08,264.62 L492.10,264.81 L491.41,258.19 L489.21,258.18 L489.89,264.94 L487.80,265.48 L484.85,264.81 L484.56,260.98 L478.30,260.34 L478.17,258.01 L474.62,257.32 Z"/>
  <path id="diamond-heights" data-name="Diamond Heights" d="M291.61,314.46 L280.12,314.66 L278.27,315.15 L276.08,316.21 L275.84,316.59 L270.83,321.37 L270.35,321.53 L268.50,321.67 L267.61,320.71 L256.92,322.56 L259.26,325.07 L260.61,326.22 L263.09,329.60 L263.74,332.66 L265.14,333.49 L270.50,335.39 L275.88,332.69 L278.41,332.84 L279.87,336.99 L282.63,338.80 L281.76,340.52 L285.50,343.18 L284.67,345.65 L285.02,350.31 L286.88,350.74 L287.18,350.90 L293.79,352.22 L296.42,351.74 L300.36,345.41 L300.67,345.15 L301.82,342.42 L302.21,340.09 L301.38,334.47 L300.94,328.66 L293.01,329.12 L291.61,314.46 Z"/>
  <path id="crocker-amazon" data-name="Crocker Amazon" d="M233.31,461.39 L233.33,461.52 L344.27,461.08 L345.44,457.32 L343.52,456.22 L341.90,454.88 L341.41,454.68 L341.79,453.09 L341.94,452.78 L338.98,451.14 L334.01,449.28 L338.67,439.09 L331.59,437.26 L332.43,434.63 L317.67,431.42 L308.71,443.22 L308.12,443.62 L302.10,441.08 L287.28,434.43 L281.53,431.56 L278.34,435.75 L271.76,441.99 L265.13,448.19 L262.02,449.83 L252.76,454.78 L233.31,461.39 Z"/>
  <path id="fairmount" data-name="Fairmount" d="M301.38,334.47 L302.21,340.09 L301.82,342.42 L300.67,345.15 L300.36,345.41 L305.86,345.55 L305.92,347.98 L306.91,350.41 L307.23,352.74 L310.08,355.20 L310.84,356.05 L312.25,357.16 L315.94,357.53 L316.62,358.09 L322.69,364.05 L324.06,365.34 L326.66,363.93 L329.33,362.19 L333.75,358.99 L337.60,355.72 L339.48,353.78 L340.78,351.67 L342.88,346.44 L346.01,337.62 L318.37,339.30 L313.51,339.48 L309.75,339.05 L309.53,333.98 L301.38,334.47 Z"/>
  <path id="peralta-heights" data-name="Peralta Heights" d="M413.16,326.35 L417.46,312.29 L407.73,313.46 L402.02,315.41 L399.02,315.59 L392.34,315.73 L392.64,318.95 L392.18,320.02 L392.07,320.73 L392.91,330.24 L393.51,332.80 L395.25,334.01 L396.64,334.10 L397.60,334.11 L401.59,334.03 L406.28,333.78 L407.45,332.73 L409.04,333.43 L412.32,328.20 L413.16,326.35 Z"/>
  <path id="holly-park" data-name="Holly Park" d="M360.67,370.39 L365.37,370.89 L368.97,370.86 L370.82,349.68 L370.61,349.38 L363.56,348.70 L347.63,342.23 L344.94,346.39 L342.88,346.44 L340.78,351.67 L339.48,353.78 L337.60,355.72 L333.75,358.99 L335.38,360.24 L341.25,360.71 L340.86,362.80 L348.50,363.50 L357.15,363.94 L357.35,367.60 L360.89,367.78 L360.67,370.39 Z"/>
  <path id="merced-manor" data-name="Merced Manor" d="M170.44,365.21 L157.60,365.51 L141.75,365.85 L118.22,366.89 L107.22,367.37 L106.95,367.75 L107.66,377.91 L114.15,379.40 L130.10,378.16 L133.29,378.08 L139.73,378.15 L154.60,378.32 L169.62,378.57 L170.18,378.31 L170.67,370.59 L170.44,365.21 Z"/>
  <path id="balboa-terrace" data-name="Balboa Terrace" d="M170.67,370.59 L170.18,378.31 L169.62,378.57 L178.54,382.41 L182.67,385.16 L185.86,390.43 L188.22,392.37 L189.84,391.07 L192.84,387.88 L194.05,386.00 L194.79,384.60 L195.67,382.43 L196.18,380.14 L198.86,376.78 L198.70,376.43 L197.58,374.86 L195.51,373.16 L192.50,370.93 L187.06,371.09 L170.67,370.59 Z"/>
  <path id="ingleside" data-name="Ingleside" d="M204.47,399.54 L204.28,412.53 L170.07,412.76 L167.71,412.79 L166.93,426.43 L202.91,426.20 L202.92,425.19 L233.64,425.10 L234.03,425.33 L235.17,425.63 L235.79,423.85 L237.65,422.57 L238.28,421.71 L239.51,418.54 L239.54,418.16 L245.06,409.94 L242.02,408.70 L240.40,407.49 L226.51,404.56 L211.66,401.42 L204.47,399.54 Z"/>
  <path id="merced-heights" data-name="Merced Heights" d="M202.91,426.20 L166.94,426.43 L166.80,428.97 L166.58,429.93 L169.93,439.67 L170.80,442.59 L171.59,448.39 L171.60,449.26 L171.73,458.91 L171.31,461.57 L179.90,461.59 L184.45,457.66 L187.82,455.69 L190.72,454.49 L195.18,453.30 L208.26,452.91 L203.43,451.24 L203.17,450.07 L202.91,426.20 Z"/>
  <path id="outer-mission" data-name="Outer Mission" d="M233.31,461.39 L252.76,454.78 L262.02,449.83 L265.13,448.19 L271.76,441.99 L264.02,435.79 L256.29,429.60 L255.48,427.23 L255.78,424.94 L253.95,424.52 L253.65,427.43 L253.10,429.40 L251.74,432.12 L250.23,434.18 L248.02,436.39 L240.59,442.89 L238.14,444.97 L230.59,450.26 L225.83,452.03 L222.29,452.69 L218.67,452.87 L197.15,453.08 L195.18,453.30 L190.72,454.49 L187.82,455.69 L184.45,457.66 L179.89,461.60 L233.32,461.51 L233.31,461.39 Z"/>
  <path id="ingleside-terraces" data-name="Ingleside Terraces" d="M169.62,378.57 L168.67,393.88 L167.71,412.79 L170.07,412.76 L204.28,412.53 L204.47,399.54 L193.19,395.40 L188.22,392.37 L185.86,390.43 L182.67,385.16 L178.54,382.41 L169.62,378.57 Z"/>
  <path id="mt-davidson-manor" data-name="Mt. Davidson Manor" d="M198.86,376.78 L196.18,380.14 L195.67,382.43 L194.79,384.60 L194.05,386.00 L192.84,387.88 L189.84,391.07 L188.22,392.37 L193.19,395.40 L204.47,399.54 L211.66,401.42 L211.23,400.96 L211.18,392.37 L207.36,392.81 L204.57,392.18 L204.55,390.62 L209.87,388.62 L209.88,387.33 L211.01,386.91 L211.20,386.66 L211.12,382.08 L210.43,380.75 L207.71,382.32 L204.93,382.25 L199.79,379.22 L198.86,376.78 Z"/>
  <path id="monterey-heights" data-name="Monterey Heights" d="M205.10,359.25 L201.11,356.79 L202.05,359.74 L201.32,361.08 L197.22,361.57 L196.70,361.91 L196.19,362.43 L197.00,365.59 L198.00,365.96 L198.81,369.13 L196.12,372.02 L195.51,373.16 L197.58,374.86 L198.70,376.43 L198.86,376.78 L199.79,379.22 L204.93,382.25 L207.71,382.32 L210.43,380.75 L213.40,379.47 L217.25,379.28 L217.86,377.63 L217.96,376.41 L217.55,373.08 L215.92,369.07 L214.31,366.73 L211.29,363.91 L205.10,359.25 Z"/>
  <path id="westwood-highlands" data-name="Westwood Highlands" d="M214.31,366.73 L215.92,369.07 L217.55,373.08 L217.96,376.41 L217.86,377.63 L217.25,379.28 L219.00,379.14 L221.34,378.64 L231.00,377.00 L236.47,376.76 L236.42,371.28 L234.85,371.44 L234.14,371.46 L233.34,371.33 L232.47,370.35 L231.64,368.81 L230.73,368.16 L229.81,367.86 L227.18,367.30 L226.49,367.02 L225.18,366.81 L223.25,365.70 L220.93,366.01 L219.38,365.72 L218.40,365.67 L217.04,365.82 L215.97,366.12 L214.31,366.73 Z"/>
  <path id="westwood-park" data-name="Westwood Park" d="M210.43,380.75 L211.12,382.08 L211.20,386.66 L211.01,386.91 L209.88,387.33 L209.87,388.62 L204.55,390.62 L204.57,392.18 L207.36,392.81 L211.18,392.37 L211.23,400.96 L211.66,401.42 L226.51,404.56 L240.40,407.49 L240.21,390.08 L239.99,382.81 L236.53,382.92 L236.47,376.76 L231.00,377.00 L221.34,378.64 L219.00,379.14 L217.25,379.28 L213.40,379.47 L210.43,380.75 Z"/>
  <path id="miraloma-park" data-name="Miraloma Park" d="M225.75,339.90 L221.72,342.44 L223.44,344.44 L225.08,343.93 L225.73,344.82 L228.97,342.98 L231.05,344.74 L232.88,343.30 L236.32,344.95 L237.37,345.32 L239.98,345.05 L241.46,345.04 L241.93,345.34 L242.10,345.55 L242.67,346.48 L241.01,346.58 L241.89,347.99 L242.23,350.04 L242.20,350.54 L242.30,351.55 L242.07,352.86 L239.38,353.16 L236.40,355.17 L236.40,357.99 L236.38,360.97 L239.76,368.53 L250.66,368.48 L252.90,366.78 L258.62,366.75 L262.74,368.42 L263.34,368.45 L264.21,368.33 L264.53,367.89 L265.65,366.89 L265.77,365.79 L274.43,365.73 L275.27,365.73 L275.76,365.79 L276.73,366.15 L277.92,366.32 L277.89,362.68 L281.37,364.25 L284.10,364.86 L282.71,363.90 L281.05,361.57 L280.20,361.02 L278.45,360.60 L277.40,360.62 L274.23,361.50 L273.23,361.69 L272.68,361.63 L271.31,360.03 L272.55,358.53 L275.74,356.60 L276.77,354.60 L276.58,353.85 L276.13,352.63 L276.00,352.07 L275.95,351.27 L276.38,348.77 L276.31,347.94 L276.06,347.48 L275.55,347.00 L275.03,346.66 L274.35,346.45 L271.94,345.85 L271.17,345.45 L269.60,343.72 L269.01,343.26 L268.37,342.87 L267.47,342.56 L266.40,342.38 L265.20,342.24 L263.50,341.27 L263.34,340.96 L263.15,340.35 L262.78,338.34 L261.73,337.21 L260.48,336.59 L258.42,336.24 L253.23,335.74 L250.60,334.65 L249.70,333.82 L249.13,333.16 L246.99,330.52 L243.40,326.11 L242.97,325.84 L241.94,325.92 L236.94,328.76 L233.00,331.58 L229.66,334.58 L229.35,335.14 L227.74,337.84 L225.75,339.90 Z"/>
  <path id="mclaren-park" data-name="McLaren Park" d="M343.56,453.78 L343.49,452.56 L347.16,451.73 L348.37,452.05 L346.35,450.97 L348.35,446.81 L342.45,445.10 L344.56,439.91 L350.64,441.62 L351.52,439.77 L373.07,445.87 L375.00,441.44 L374.41,434.70 L378.56,435.83 L379.59,432.54 L382.75,431.58 L386.35,430.34 L392.31,431.95 L393.68,430.35 L399.62,431.98 L398.55,429.83 L400.49,425.30 L398.00,424.61 L398.86,422.74 L397.98,421.32 L390.79,423.19 L390.72,422.06 L385.35,409.02 L383.52,404.66 L372.78,407.47 L374.11,410.60 L370.49,411.53 L369.17,408.42 L365.54,409.14 L363.81,404.99 L360.23,405.97 L358.41,401.57 L342.75,405.62 L342.20,405.93 L340.31,408.24 L340.52,408.35 L339.07,410.27 L342.11,411.72 L337.84,417.37 L340.03,418.01 L344.34,418.82 L345.67,419.69 L345.66,422.07 L347.43,425.07 L339.52,430.07 L337.17,426.06 L335.35,425.04 L332.12,434.56 L332.43,434.63 L331.59,437.26 L338.67,439.09 L334.01,449.28 L339.26,451.28 L341.94,452.78 L341.79,453.09 L343.56,453.78 Z"/>
  <path id="sunnydale" data-name="Sunnydale" d="M344.27,461.08 L371.70,461.13 L372.64,459.01 L372.66,456.16 L369.29,455.23 L373.07,445.87 L351.52,439.77 L350.64,441.62 L344.56,439.91 L342.45,445.10 L348.35,446.81 L346.35,450.97 L348.37,452.05 L347.16,451.73 L343.49,452.56 L343.56,453.78 L341.41,454.68 L341.90,454.88 L343.52,456.22 L345.44,457.32 L344.27,461.08 Z"/>
  <path id="visitacion-valley" data-name="Visitacion Valley" d="M371.70,461.13 L410.89,461.03 L412.30,457.89 L413.66,455.31 L418.76,448.44 L422.08,446.71 L424.71,446.02 L426.10,445.44 L427.15,444.62 L428.31,443.44 L432.19,439.50 L434.35,435.64 L432.33,435.45 L424.88,437.39 L421.31,428.67 L417.70,419.91 L414.14,420.85 L412.47,416.84 L401.68,419.65 L397.98,421.32 L398.86,422.74 L398.00,424.61 L400.49,425.30 L398.55,429.83 L399.62,431.98 L393.68,430.35 L392.31,431.95 L386.35,430.34 L382.75,431.58 L379.59,432.54 L378.56,435.83 L374.41,434.70 L375.00,441.44 L373.07,445.87 L369.29,455.23 L372.66,456.16 L372.64,459.01 L371.70,461.13 Z"/>
  <path id="india-basin" data-name="India Basin" d="M505.48,367.49 L532.47,382.79 L540.67,373.72 L533.98,367.76 L531.83,366.98 L526.16,371.86 L524.09,373.06 L520.87,371.57 L519.15,371.83 L521.98,366.33 L522.05,364.42 L518.91,361.13 L520.73,359.69 L522.01,355.85 L519.71,352.00 L523.81,353.91 L526.90,356.24 L529.48,356.72 L535.20,356.62 L544.52,353.51 L548.58,352.90 L548.82,352.01 L536.06,352.62 L530.07,352.18 L526.74,350.39 L525.23,347.93 L521.90,347.74 L517.58,347.37 L514.87,345.27 L492.07,331.85 L477.32,323.58 L477.49,327.53 L474.58,336.14 L499.98,350.46 L506.64,354.40 L505.56,356.38 L505.53,363.26 L505.48,367.49 Z"/>
  <path id="northern-waterfront" data-name="Northern Waterfront" d="M411.20,107.09 L412.55,113.86 L418.51,113.14 L422.58,133.51 L426.86,132.96 L428.92,142.80 L441.74,141.08 L445.80,140.34 L447.39,139.86 L449.60,139.76 L456.43,135.19 L455.37,134.16 L449.31,137.77 L447.21,136.71 L454.12,132.74 L453.13,131.64 L445.73,135.54 L443.36,132.29 L451.61,127.82 L450.91,127.14 L443.09,132.00 L439.29,128.31 L447.26,123.58 L446.15,122.43 L437.99,126.96 L436.56,125.35 L444.71,120.72 L441.24,116.80 L432.83,121.16 L431.69,119.88 L439.73,115.15 L438.64,113.93 L432.13,117.59 L430.78,116.07 L437.14,112.30 L436.04,111.05 L428.94,115.19 L427.18,114.84 L429.23,101.39 L427.28,100.01 L420.49,105.90 L418.24,104.27 L422.17,99.37 L420.74,98.62 L416.30,103.87 L413.53,102.45 L416.46,96.00 L414.73,95.56 L411.33,102.83 L409.21,101.76 L410.30,104.69 L411.20,107.09 Z"/>
  <path id="hunters-point" data-name="Hunters Point" d="M540.67,373.72 L532.47,382.79 L505.48,367.49 L505.05,367.64 L504.03,368.75 L503.69,370.66 L504.87,373.37 L505.78,375.65 L505.78,376.72 L505.31,377.86 L502.27,380.40 L501.08,380.50 L498.17,380.21 L495.81,380.02 L492.90,381.09 L486.84,387.83 L472.51,403.78 L468.43,408.32 L475.24,412.10 L488.07,419.39 L488.55,419.90 L490.85,417.59 L493.49,412.40 L486.26,407.64 L478.24,403.56 L480.83,402.44 L485.08,403.75 L487.64,405.97 L494.14,410.01 L499.88,412.16 L503.53,410.37 L504.43,408.22 L506.07,407.48 L507.57,404.68 L514.02,403.27 L515.33,406.05 L518.22,409.13 L518.42,414.22 L519.59,417.08 L524.61,420.82 L525.06,422.52 L527.49,422.98 L533.42,422.33 L538.30,423.45 L540.31,425.80 L542.42,426.75 L547.57,427.01 L553.67,430.84 L555.57,433.01 L557.23,433.15 L559.00,431.47 L561.68,431.12 L576.00,439.42 L576.42,438.96 L562.07,430.59 L566.51,425.89 L580.77,434.21 L581.28,433.66 L567.01,425.37 L567.06,424.57 L562.83,422.13 L566.26,418.43 L576.03,424.17 L579.20,420.97 L562.27,411.05 L565.23,407.86 L575.27,413.75 L576.22,412.77 L566.13,406.84 L567.52,405.31 L556.89,399.10 L558.07,397.90 L568.55,404.19 L570.59,404.96 L583.99,401.88 L583.54,400.71 L571.57,403.55 L570.16,399.71 L583.35,396.73 L584.49,395.85 L587.10,387.10 L586.47,386.60 L576.26,389.04 L575.62,388.07 L583.86,386.15 L584.38,384.35 L569.08,387.99 L568.76,386.73 L579.88,384.08 L580.53,383.12 L576.44,381.12 L572.07,382.12 L569.30,382.02 L566.79,379.99 L569.67,376.73 L568.64,376.24 L565.76,379.42 L563.75,378.27 L566.60,375.04 L565.67,374.54 L562.67,377.66 L557.55,374.82 L554.31,375.68 L552.84,373.81 L548.42,375.21 L546.15,374.04 L542.70,375.07 L540.67,373.72 Z"/>
  <path id="candlestick-point-sra" data-name="Candlestick Point SRA" d="M447.51,452.78 L449.39,460.88 L455.65,460.86 L461.71,456.16 L465.01,457.91 L468.15,456.46 L473.96,459.88 L478.69,455.86 L481.28,455.07 L487.24,457.63 L495.34,458.47 L496.71,459.14 L501.33,459.41 L505.47,460.74 L517.59,460.93 L523.05,460.41 L523.62,458.91 L519.56,456.56 L516.61,456.26 L514.35,459.19 L511.48,460.23 L509.64,459.47 L507.25,455.28 L503.31,452.91 L503.24,449.56 L507.28,444.05 L513.15,439.16 L517.51,433.21 L513.61,430.14 L506.83,426.76 L502.20,423.51 L498.37,422.85 L497.12,421.11 L490.85,417.59 L488.55,419.90 L480.63,428.95 L478.50,427.75 L474.64,432.04 L473.84,432.15 L472.24,431.66 L472.85,433.15 L472.40,434.13 L473.33,436.49 L471.56,438.09 L469.09,434.84 L463.09,428.67 L454.15,424.19 L452.75,425.20 L449.73,425.56 L448.79,427.54 L446.85,427.49 L445.35,430.71 L442.27,430.95 L439.28,430.77 L438.72,431.07 L437.30,432.96 L436.19,433.01 L437.85,436.11 L439.05,437.50 L439.38,437.99 L442.86,442.09 L444.23,444.04 L445.40,446.06 L446.28,448.16 L446.86,449.86 L447.51,452.78 Z"/>
  <path id="cayuga" data-name="Cayuga" d="M271.76,441.99 L278.34,435.75 L281.53,431.56 L283.72,428.71 L287.05,424.26 L289.37,421.20 L294.47,414.46 L302.02,404.48 L289.57,405.60 L281.42,406.54 L267.71,408.09 L258.57,408.09 L256.18,408.99 L255.28,414.52 L254.57,420.83 L254.02,424.55 L255.78,424.94 L255.48,427.23 L256.29,429.60 L264.02,435.79 L271.76,441.99 Z"/>
  <path id="oceanview" data-name="Oceanview" d="M202.91,426.20 L203.17,450.07 L203.43,451.24 L208.26,452.91 L218.67,452.87 L222.29,452.69 L225.83,452.03 L230.59,450.26 L238.14,444.97 L240.59,442.89 L248.02,436.39 L250.23,434.18 L251.74,432.12 L253.10,429.40 L253.65,427.43 L254.57,420.83 L255.28,414.52 L256.18,408.99 L256.50,408.09 L250.74,408.07 L243.51,408.17 L240.40,407.49 L242.02,408.70 L245.06,409.94 L239.54,418.16 L239.51,418.54 L238.28,421.71 L237.65,422.57 L235.79,423.85 L235.17,425.63 L234.03,425.33 L233.64,425.10 L202.92,425.19 L202.91,426.20 Z"/>
  <path id="apparel-city" data-name="Apparel City" d="M411.62,334.87 L411.10,334.34 L407.93,334.79 L406.14,336.85 L404.24,339.63 L403.57,340.83 L402.49,343.84 L402.18,345.44 L401.63,348.85 L401.70,350.99 L402.10,354.14 L404.86,353.36 L405.55,353.36 L406.31,359.39 L406.62,360.89 L407.21,362.29 L409.37,362.07 L411.83,361.18 L414.73,359.93 L417.19,358.64 L419.08,357.49 L421.90,355.72 L427.22,351.26 L431.75,346.27 L411.62,334.87 Z"/>
  <path id="bernal-heights" data-name="Bernal Heights" d="M342.88,346.44 L344.94,346.39 L347.63,342.23 L363.56,348.70 L370.61,349.38 L370.82,349.68 L368.93,370.86 L365.37,370.89 L360.67,370.39 L360.47,371.43 L359.67,372.81 L359.53,374.25 L373.70,374.30 L375.72,374.22 L378.36,373.54 L380.56,372.61 L381.82,372.01 L386.74,369.76 L391.94,366.96 L395.23,365.64 L398.57,364.59 L407.21,362.70 L407.21,362.29 L406.62,360.89 L406.31,359.39 L405.55,353.36 L404.86,353.36 L402.10,354.14 L401.70,350.99 L401.63,348.85 L402.18,345.44 L402.49,343.84 L403.57,340.83 L404.24,339.63 L406.14,336.85 L407.93,334.79 L407.45,332.73 L406.28,333.78 L401.59,334.03 L397.60,334.11 L396.64,334.10 L395.25,334.01 L393.51,332.80 L392.91,330.24 L392.07,320.73 L392.18,320.02 L392.64,318.95 L392.34,315.73 L356.95,316.42 L348.91,316.83 L349.89,325.68 L348.25,331.63 L346.01,337.62 L342.88,346.44 Z"/>
  <path id="noe-valley" data-name="Noe Valley" d="M301.38,334.47 L309.53,333.98 L309.75,339.05 L313.51,339.48 L318.37,339.30 L346.01,337.62 L348.25,331.63 L349.89,325.68 L348.91,316.83 L332.34,317.98 L330.39,297.64 L314.24,298.61 L313.68,292.78 L289.67,294.23 L291.34,311.68 L291.61,314.46 L293.01,329.12 L300.94,328.66 L301.38,334.47 Z"/>
  <path id="produce-market" data-name="Produce Market" d="M445.20,319.56 L444.55,319.11 L440.55,310.75 L423.19,311.80 L417.46,312.28 L413.16,326.35 L412.32,328.20 L408.99,333.44 L411.10,334.34 L411.62,334.87 L438.65,350.16 L448.70,338.93 L449.54,338.60 L459.11,327.42 L445.20,319.56 Z"/>
  <path id="bayview" data-name="Bayview" d="M438.65,350.16 L445.43,354.02 L452.16,357.86 L464.52,364.88 L462.52,370.61 L459.24,379.99 L457.50,384.95 L449.28,383.84 L443.74,383.05 L440.17,382.55 L434.43,381.73 L431.17,381.27 L425.61,387.48 L423.57,389.76 L423.03,390.37 L423.86,393.37 L426.38,402.01 L427.83,405.54 L445.90,409.84 L446.60,409.85 L451.61,398.78 L468.43,408.32 L472.51,403.78 L486.84,387.83 L492.90,381.09 L495.81,380.02 L498.17,380.21 L501.08,380.50 L502.27,380.40 L505.31,377.86 L505.78,376.72 L505.78,375.65 L504.87,373.37 L503.69,370.66 L504.03,368.75 L505.05,367.64 L505.48,367.49 L505.53,363.26 L505.56,356.38 L506.64,354.40 L499.98,350.46 L474.58,336.14 L459.11,327.42 L449.54,338.60 L448.70,338.93 L438.65,350.16 Z"/>
  <path id="silver-terrace" data-name="Silver Terrace" d="M423.03,390.37 L423.57,389.76 L425.61,387.48 L431.17,381.27 L434.43,381.73 L440.17,382.55 L443.74,383.05 L449.28,383.84 L457.50,384.95 L459.24,379.99 L462.52,370.61 L464.52,364.88 L452.16,357.86 L445.43,354.02 L438.65,350.16 L431.75,346.27 L427.22,351.26 L421.90,355.72 L419.08,357.49 L417.19,358.64 L414.73,359.93 L411.83,361.18 L409.37,362.07 L407.49,362.62 L410.70,366.74 L412.15,368.82 L413.75,371.61 L418.32,379.93 L420.67,384.67 L422.65,389.23 L423.03,390.37 Z"/>
  <path id="bret-harte" data-name="Bret Harte" d="M468.43,408.32 L451.61,398.78 L446.60,409.85 L445.90,409.84 L427.83,405.54 L430.96,413.17 L432.14,415.34 L433.56,418.72 L435.09,425.15 L436.14,431.26 L435.95,432.57 L436.19,433.01 L437.30,432.96 L438.72,431.07 L439.28,430.77 L442.27,430.95 L445.35,430.71 L446.85,427.49 L450.22,426.91 L449.73,425.56 L452.75,425.20 L454.15,424.19 L463.09,428.67 L469.09,434.84 L471.56,438.09 L473.33,436.49 L472.40,434.13 L472.85,433.15 L472.24,431.66 L473.84,432.15 L474.64,432.04 L478.50,427.75 L480.63,428.95 L488.55,419.90 L488.07,419.39 L475.24,412.10 L468.43,408.32 Z"/>
  <path id="little-hollywood" data-name="Little Hollywood" d="M434.35,435.64 L432.19,439.50 L428.31,443.44 L427.15,444.62 L426.10,445.44 L424.71,446.02 L422.08,446.71 L418.76,448.44 L413.66,455.31 L412.30,457.89 L410.89,461.03 L449.38,460.82 L447.51,452.78 L446.86,449.86 L446.28,448.16 L445.40,446.06 L444.23,444.04 L442.86,442.09 L439.38,437.99 L439.05,437.50 L437.85,436.11 L435.57,433.67 L434.90,434.96 L434.35,435.64 Z"/>
  <path id="excelsior" data-name="Excelsior" d="M317.67,431.42 L332.12,434.56 L335.35,425.04 L337.57,426.51 L339.52,430.07 L347.43,425.07 L345.71,422.44 L345.92,420.40 L344.15,418.78 L340.03,418.01 L337.84,417.37 L342.11,411.72 L338.91,410.55 L340.52,408.35 L340.31,408.24 L342.20,405.93 L342.75,405.62 L351.24,403.42 L347.63,394.70 L345.83,390.36 L344.36,386.84 L336.27,387.27 L328.11,387.62 L320.18,387.61 L316.89,386.95 L311.39,392.09 L308.42,396.01 L302.02,404.48 L294.47,414.46 L289.37,421.20 L287.05,424.26 L283.72,428.71 L281.53,431.56 L287.28,434.43 L302.10,441.08 L308.12,443.62 L308.71,443.22 L317.67,431.42 Z"/>
  <path id="portola" data-name="Portola" d="M397.98,421.32 L401.68,419.65 L412.47,416.84 L414.14,420.85 L417.70,419.91 L421.31,428.67 L424.88,437.39 L432.33,435.45 L434.35,435.64 L434.90,434.96 L435.57,433.67 L435.95,432.57 L436.14,431.26 L435.09,425.15 L433.56,418.72 L432.14,415.34 L430.96,413.17 L427.83,405.54 L425.55,399.35 L423.86,393.37 L423.03,390.37 L422.65,389.23 L420.67,384.67 L418.32,379.93 L413.75,371.61 L412.15,368.82 L410.70,366.74 L407.21,362.70 L398.57,364.59 L395.23,365.64 L391.94,366.96 L386.74,369.76 L381.82,372.01 L380.56,372.61 L378.36,373.54 L375.72,374.22 L373.70,374.30 L369.02,374.45 L368.12,381.37 L368.89,381.48 L369.76,381.53 L370.70,381.43 L371.63,381.29 L373.30,380.15 L378.10,391.58 L383.52,404.66 L385.35,409.02 L390.72,422.06 L390.79,423.19 L397.98,421.32 Z"/>
  <path id="university-mound" data-name="University Mound" d="M351.24,403.42 L358.41,401.57 L360.23,405.97 L363.81,404.99 L365.54,409.14 L369.17,408.42 L370.49,411.53 L374.11,410.60 L372.78,407.47 L383.52,404.66 L378.10,391.58 L373.30,380.15 L371.63,381.29 L370.70,381.43 L369.76,381.53 L368.89,381.48 L368.12,381.37 L369.01,374.45 L359.51,374.25 L358.09,385.68 L356.04,386.23 L352.15,386.42 L344.36,386.84 L345.83,390.36 L347.63,394.70 L351.24,403.42 Z"/>
  <path id="st-marys-park" data-name="St. Marys Park" d="M357.15,363.94 L348.50,363.50 L340.86,362.80 L341.25,360.71 L335.38,360.24 L333.52,359.16 L329.33,362.19 L326.66,363.93 L322.33,366.31 L301.87,375.83 L303.06,376.28 L308.42,374.97 L310.22,374.61 L312.56,374.27 L316.85,373.86 L320.34,373.77 L326.94,374.62 L331.26,375.54 L335.49,376.96 L335.55,378.08 L335.83,377.92 L337.43,377.90 L338.43,377.55 L341.40,376.70 L347.24,376.15 L354.71,374.82 L359.44,374.40 L359.67,372.81 L360.47,371.43 L360.67,370.39 L360.89,367.78 L357.35,367.60 L357.15,363.94 Z"/>
  <path id="mission-terrace" data-name="Mission Terrace" d="M302.02,404.48 L308.42,396.01 L311.39,392.09 L316.89,386.95 L320.18,387.61 L328.11,387.62 L336.27,387.27 L344.36,386.84 L352.15,386.42 L356.04,386.23 L358.09,385.68 L359.47,374.40 L354.71,374.82 L347.24,376.15 L341.40,376.70 L338.43,377.55 L337.43,377.90 L335.83,377.92 L335.55,378.08 L335.49,376.96 L331.26,375.54 L326.94,374.62 L320.34,373.77 L316.85,373.86 L312.56,374.27 L310.22,374.61 L308.42,374.97 L303.06,376.28 L297.31,376.73 L296.74,376.99 L295.54,377.36 L289.99,379.65 L286.38,381.14 L275.80,385.60 L270.79,388.22 L269.68,388.65 L271.76,388.50 L271.45,388.75 L266.96,392.12 L264.42,394.64 L263.59,395.55 L262.30,396.95 L260.28,399.74 L259.05,401.83 L257.84,404.13 L256.54,408.09 L258.57,408.09 L267.71,408.09 L281.42,406.54 L289.57,405.60 L302.02,404.48 Z"/>
  <path id="sunnyside" data-name="Sunnyside" d="M281.37,364.25 L277.89,362.68 L277.92,366.32 L276.73,366.15 L275.76,365.79 L275.27,365.73 L274.43,365.73 L265.77,365.79 L265.65,366.89 L264.53,367.89 L264.21,368.33 L263.34,368.45 L262.74,368.42 L258.62,366.75 L252.90,366.78 L250.66,368.48 L239.76,368.53 L234.85,371.44 L236.42,371.28 L236.47,376.76 L236.53,382.92 L239.99,382.81 L240.21,390.08 L240.40,407.49 L243.51,408.17 L250.74,408.07 L256.48,408.10 L257.84,404.13 L259.05,401.83 L260.28,399.74 L262.30,396.95 L263.59,395.55 L264.42,394.64 L266.91,392.16 L271.45,388.75 L271.76,388.50 L269.68,388.65 L270.79,388.22 L275.80,385.60 L286.38,381.14 L289.99,379.65 L295.54,377.36 L296.74,376.99 L297.31,376.73 L301.87,375.83 L305.83,373.87 L305.44,373.11 L301.92,373.65 L302.09,373.10 L294.43,371.65 L295.41,368.70 L290.99,367.85 L289.33,367.52 L288.80,367.24 L288.51,367.15 L288.22,367.05 L285.91,366.26 L285.33,366.06 L284.75,365.86 L284.70,365.95 L284.12,365.75 L284.04,365.89 L283.47,365.68 L282.26,364.65 L281.37,364.25 Z"/>
  <path id="glen-park" data-name="Glen Park" d="M286.88,350.74 L285.02,350.31 L284.67,345.65 L285.50,343.18 L281.76,340.52 L282.63,338.80 L279.87,336.99 L278.41,332.84 L275.88,332.69 L270.50,335.39 L265.14,333.49 L263.74,332.66 L263.09,329.60 L260.61,326.22 L259.26,325.07 L256.92,322.56 L245.77,324.78 L242.97,325.84 L243.40,326.11 L246.99,330.52 L249.13,333.16 L249.70,333.82 L250.60,334.65 L253.23,335.74 L258.42,336.24 L260.48,336.59 L261.73,337.21 L262.78,338.34 L263.15,340.35 L263.34,340.96 L263.50,341.27 L265.20,342.24 L266.40,342.38 L267.47,342.56 L268.37,342.87 L269.01,343.26 L269.60,343.72 L271.17,345.45 L271.94,345.85 L274.35,346.45 L275.03,346.66 L275.55,347.00 L276.06,347.48 L276.31,347.94 L276.38,348.77 L275.95,351.27 L276.00,352.07 L276.13,352.63 L276.58,353.85 L276.77,354.60 L275.74,356.60 L272.55,358.53 L271.31,360.03 L272.68,361.63 L273.23,361.69 L274.23,361.50 L277.40,360.62 L278.45,360.60 L280.20,361.02 L281.05,361.57 L282.71,363.90 L284.10,364.86 L282.26,364.65 L283.47,365.68 L284.04,365.89 L284.12,365.75 L284.70,365.95 L284.75,365.86 L285.33,366.06 L285.91,366.26 L288.22,367.05 L288.51,367.15 L288.80,367.24 L289.33,367.52 L290.99,367.85 L295.41,368.70 L294.43,371.65 L302.09,373.10 L301.92,373.65 L305.44,373.11 L305.83,373.87 L322.33,366.31 L322.69,364.05 L316.62,358.09 L315.94,357.53 L312.25,357.16 L310.84,356.05 L310.08,355.20 L307.23,352.74 L306.91,350.41 L305.92,347.98 L305.86,345.55 L300.36,345.41 L296.42,351.74 L293.79,352.22 L287.18,350.90 L286.88,350.74 Z"/>
  <path id="western-addition" data-name="Western Addition" d="M287.13,188.49 L289.82,201.76 L281.75,202.83 L277.77,203.27 L259.64,205.53 L261.71,215.79 L291.86,211.95 L291.18,208.54 L315.19,205.49 L315.87,208.88 L345.76,205.08 L344.39,198.30 L332.44,199.82 L329.67,186.25 L329.46,186.40 L320.73,187.45 L311.76,188.55 L311.00,184.68 L293.06,187.00 L287.13,188.49 Z"/>
  <path id="aquatic-park-ft-mason" data-name="Aquatic Park / Ft. Mason" d="M339.38,112.72 L357.31,110.38 L355.26,100.20 L349.19,100.95 L344.48,103.53 L341.22,103.67 L336.63,101.81 L334.25,98.16 L328.07,97.24 L322.20,99.34 L321.20,94.29 L319.34,94.47 L320.49,100.68 L317.98,101.02 L316.72,94.87 L315.32,94.99 L316.56,101.20 L314.04,101.53 L314.00,108.89 L314.15,109.17 L315.49,115.92 L339.38,112.72 Z"/>
  <path id="fishermans-wharf" data-name="Fishermans Wharf" d="M357.31,110.38 L393.19,105.88 L393.87,109.26 L399.70,108.53 L411.20,107.09 L410.30,104.69 L409.21,101.76 L408.40,91.30 L405.90,91.45 L406.52,99.37 L403.94,98.53 L399.73,86.77 L393.78,85.96 L389.79,87.37 L388.83,86.94 L383.91,89.54 L387.43,93.66 L384.81,94.79 L382.05,93.92 L376.96,93.72 L374.86,94.49 L362.15,86.08 L360.81,88.19 L356.67,85.95 L355.80,86.83 L367.37,94.47 L371.82,95.60 L371.24,97.76 L367.61,98.27 L365.65,96.47 L356.28,97.61 L354.10,96.69 L349.19,100.95 L355.26,100.20 L357.31,110.38 Z"/>
  <path id="cathedral-hill" data-name="Cathedral Hill" d="M350.20,166.30 L332.29,168.57 L333.72,175.34 L335.31,181.34 L329.25,182.11 L329.67,186.25 L332.44,199.82 L344.39,198.30 L356.36,196.77 L355.64,193.39 L350.20,166.30 Z"/>
  <path id="japantown" data-name="Japantown" d="M329.67,186.25 L329.25,182.11 L335.32,181.34 L333.72,175.34 L332.29,168.57 L308.34,171.61 L311.00,184.68 L311.76,188.55 L320.73,187.45 L329.46,186.40 L329.67,186.25 Z"/>
  <path id="pacific-heights" data-name="Pacific Heights" d="M344.17,136.46 L260.27,147.10 L261.69,156.36 L262.33,157.33 L265.59,173.47 L307.64,168.14 L308.34,171.61 L332.29,168.57 L350.20,166.30 L349.49,162.81 L348.16,156.25 L344.17,136.46 Z"/>
  <path id="lower-pacific-heights" data-name="Lower Pacific Heights" d="M308.34,171.61 L307.64,168.14 L265.59,173.47 L260.54,174.12 L264.07,191.47 L275.08,190.03 L287.13,188.49 L293.06,187.00 L311.00,184.68 L308.34,171.61 Z"/>
  <path id="chinatown" data-name="Chinatown" d="M394.04,140.55 L395.99,150.15 L401.94,149.39 L402.59,152.60 L404.69,162.83 L416.03,161.39 L413.91,151.20 L419.93,150.41 L418.62,144.04 L414.64,141.24 L411.98,141.57 L411.45,139.04 L406.44,135.56 L393.36,137.18 L394.04,140.55 Z"/>
  <path id="polk-gulch" data-name="Polk Gulch" d="M350.20,166.30 L362.17,164.78 L357.56,142.00 L355.45,131.54 L343.48,133.06 L344.17,136.46 L348.16,156.25 L349.49,162.81 L350.20,166.30 Z"/>
  <path id="north-beach" data-name="North Beach" d="M418.62,144.04 L428.92,142.80 L426.86,132.96 L422.58,133.51 L421.88,130.04 L410.16,131.54 L408.78,124.76 L403.10,125.48 L399.70,108.53 L393.87,109.26 L393.19,105.88 L368.05,109.00 L390.85,124.77 L393.36,137.18 L406.44,135.56 L411.45,139.04 L411.98,141.57 L414.64,141.24 L418.62,144.04 Z"/>
  <path id="russian-hill" data-name="Russian Hill" d="M394.04,140.55 L393.36,137.18 L390.85,124.77 L368.05,109.00 L357.31,110.38 L339.38,112.72 L341.46,123.06 L343.48,133.06 L355.45,131.54 L357.56,142.00 L358.10,141.88 L369.52,140.48 L370.13,143.54 L394.04,140.55 Z"/>
  <path id="financial-district" data-name="Financial District" d="M418.62,144.04 L419.93,150.41 L413.91,151.20 L416.03,161.39 L422.03,160.64 L423.55,168.08 L423.17,168.81 L428.85,173.43 L445.91,159.97 L457.14,168.93 L467.00,161.15 L469.55,159.07 L460.78,151.69 L459.84,150.08 L459.99,146.51 L462.69,143.15 L461.26,141.60 L456.14,143.94 L452.04,139.20 L449.60,139.76 L447.39,139.86 L445.80,140.34 L441.74,141.08 L428.92,142.80 L418.62,144.04 Z"/>
  <path id="inner-sunset" data-name="Inner Sunset" d="M149.58,253.43 L150.66,267.06 L151.37,273.85 L174.93,272.79 L175.41,279.58 L198.76,278.56 L200.98,277.58 L206.86,277.01 L207.75,275.76 L204.60,273.51 L208.12,273.01 L210.45,271.64 L209.92,263.95 L213.27,262.60 L212.92,257.54 L220.43,257.21 L220.88,256.70 L220.67,253.78 L220.55,251.37 L216.34,250.50 L149.58,253.43 Z"/>
  <path id="parnassus-heights" data-name="Parnassus Heights" d="M238.16,250.07 L222.73,251.86 L220.55,251.37 L220.67,253.78 L220.88,256.70 L220.43,257.21 L212.92,257.54 L213.27,262.60 L209.92,263.95 L210.45,271.64 L208.12,273.01 L204.60,273.51 L207.74,275.76 L206.86,277.01 L214.26,276.31 L214.89,277.69 L214.39,278.17 L209.91,279.15 L209.90,280.35 L210.79,281.08 L211.83,282.25 L213.56,284.16 L213.85,285.71 L213.95,286.96 L214.10,288.03 L214.42,289.17 L214.84,289.74 L217.19,291.06 L218.17,291.15 L220.15,289.41 L220.81,289.01 L221.46,288.79 L222.57,287.60 L221.71,285.75 L223.28,284.75 L225.35,285.07 L227.40,285.36 L229.13,285.15 L231.55,284.52 L234.05,284.05 L235.17,282.45 L236.81,281.17 L243.90,278.42 L243.23,275.16 L241.25,265.37 L239.53,256.85 L238.16,250.07 Z"/>
  <path id="forest-knolls" data-name="Forest Knolls" d="M234.05,284.05 L231.55,284.52 L229.13,285.15 L227.40,285.36 L225.35,285.07 L223.28,284.75 L221.71,285.75 L222.57,287.60 L221.46,288.79 L220.81,289.01 L220.15,289.41 L218.17,291.15 L217.19,291.06 L214.84,289.74 L214.42,289.17 L214.10,288.03 L213.95,286.96 L213.85,285.71 L213.56,284.16 L211.83,282.25 L210.79,281.08 L209.90,280.35 L209.91,279.15 L214.39,278.17 L214.89,277.69 L214.26,276.31 L206.86,277.01 L200.98,277.58 L198.76,278.56 L199.21,285.01 L199.59,290.34 L199.14,292.38 L198.55,294.52 L198.54,295.76 L199.28,297.57 L200.15,298.77 L201.00,299.63 L203.54,301.65 L204.60,302.82 L205.78,303.70 L206.97,304.14 L208.30,303.45 L210.08,303.01 L216.20,302.53 L223.30,304.51 L225.43,304.21 L227.04,301.99 L226.94,299.11 L227.35,298.16 L227.84,297.20 L228.74,295.88 L230.06,293.84 L230.24,291.87 L230.50,291.00 L231.34,289.44 L232.42,287.92 L233.42,286.53 L233.70,285.95 L234.05,284.05 Z"/>
  <path id="buena-vista" data-name="Buena Vista" d="M268.03,246.24 L262.08,246.99 L264.01,256.60 L263.15,258.02 L261.58,259.76 L259.80,263.35 L260.57,266.77 L265.93,266.41 L273.02,265.98 L274.39,263.96 L277.13,263.43 L279.53,262.50 L279.22,261.45 L278.01,261.42 L278.03,260.58 L278.04,259.63 L276.76,256.70 L276.87,254.68 L280.72,254.08 L287.05,249.33 L289.98,248.69 L290.90,248.64 L291.45,248.79 L291.78,247.21 L301.15,246.60 L300.53,240.31 L298.81,237.68 L298.12,236.87 L297.35,236.45 L297.06,236.29 L296.69,235.64 L294.61,225.49 L270.60,228.54 L272.65,238.71 L266.67,239.48 L268.03,246.24 Z"/>
  <path id="corona-heights" data-name="Corona Heights" d="M302.73,263.53 L301.15,246.60 L291.78,247.21 L291.45,248.79 L290.90,248.64 L289.98,248.69 L287.05,249.33 L280.72,254.08 L276.87,254.68 L276.76,256.70 L278.04,259.63 L278.03,260.58 L278.01,261.42 L279.22,261.45 L279.53,262.50 L277.13,263.43 L274.39,263.96 L273.02,265.98 L284.62,265.29 L287.09,265.15 L294.90,264.68 L299.88,264.34 L302.73,263.53 Z"/>
  <path id="ashbury-heights" data-name="Ashbury Heights" d="M239.53,256.85 L241.25,265.37 L243.23,275.16 L243.90,278.42 L245.50,277.88 L254.20,276.72 L257.30,276.19 L259.21,274.48 L259.95,272.63 L261.84,269.58 L261.49,268.17 L260.57,266.77 L259.80,263.35 L261.58,259.76 L263.15,258.02 L264.01,256.60 L262.08,246.99 L256.10,247.77 L257.47,254.56 L239.53,256.85 Z"/>
  <path id="eureka-valley" data-name="Eureka Valley" d="M294.90,264.68 L287.09,265.15 L284.62,265.29 L273.02,265.98 L265.93,266.41 L260.57,266.77 L261.49,268.17 L261.84,269.58 L261.99,269.95 L262.17,271.75 L261.92,273.77 L261.77,276.71 L267.38,279.32 L268.65,279.32 L271.48,279.81 L273.59,281.57 L274.31,282.36 L274.64,282.84 L275.72,284.37 L280.52,286.40 L280.54,289.14 L278.99,291.47 L278.95,292.75 L281.97,293.27 L281.85,294.69 L289.67,294.23 L313.68,292.78 L312.84,284.08 L312.56,282.70 L312.49,282.04 L312.56,281.17 L312.01,275.34 L296.00,276.31 L294.90,264.68 Z"/>
  <path id="st-francis-wood" data-name="St. Francis Wood" d="M170.44,365.21 L170.67,370.59 L187.06,371.09 L192.50,370.93 L195.51,373.16 L196.12,372.02 L198.81,369.13 L198.00,365.96 L197.00,365.59 L196.19,362.43 L196.70,361.91 L197.22,361.57 L201.32,361.08 L202.05,359.74 L201.11,356.79 L205.10,359.25 L206.91,360.11 L206.81,359.52 L206.72,359.02 L206.55,358.04 L206.38,357.06 L206.10,355.47 L205.66,352.96 L205.54,352.27 L205.44,351.72 L205.35,351.18 L205.29,350.68 L205.48,349.67 L205.83,349.05 L206.04,348.79 L206.30,348.54 L206.59,348.31 L207.22,347.93 L207.73,347.72 L208.08,347.59 L209.36,346.82 L208.64,344.90 L208.02,344.74 L198.89,345.79 L195.23,346.36 L193.47,347.11 L190.12,348.75 L170.44,365.21 Z"/>
  <path id="sherwood-forest" data-name="Sherwood Forest" d="M220.84,342.48 L219.35,343.10 L208.64,344.90 L209.36,346.82 L208.08,347.59 L207.73,347.72 L207.22,347.93 L206.59,348.31 L206.30,348.54 L206.04,348.79 L205.83,349.05 L205.48,349.67 L205.29,350.68 L205.35,351.18 L205.44,351.72 L205.54,352.27 L205.66,352.96 L206.10,355.47 L206.38,357.06 L206.55,358.04 L206.72,359.02 L206.81,359.52 L206.91,360.11 L211.29,363.91 L214.31,366.73 L215.97,366.12 L217.04,365.82 L218.40,365.67 L219.38,365.72 L220.93,366.01 L223.25,365.70 L225.18,366.81 L226.49,367.02 L227.18,367.30 L229.81,367.86 L230.73,368.16 L231.64,368.81 L232.47,370.35 L233.34,371.33 L234.14,371.46 L234.85,371.44 L239.76,368.53 L236.38,360.97 L236.40,357.99 L236.40,355.17 L239.38,353.16 L242.07,352.86 L242.30,351.55 L242.20,350.54 L242.23,350.04 L241.89,347.99 L241.01,346.58 L242.67,346.48 L242.10,345.55 L241.93,345.34 L241.46,345.04 L239.98,345.05 L237.37,345.32 L236.32,344.95 L232.88,343.30 L231.05,344.74 L228.97,342.98 L225.73,344.82 L225.08,343.93 L223.44,344.44 L221.72,342.44 L220.84,342.48 Z"/>
</svg>